Coordinates
version=1
nRows=49
nColumns=12
inDegrees=yes

Units are S.I. units (second, meters, Newtons, ...)
Angles are in degrees

endheader
time	SC_y	SC_z	SC_x	AC_y	AC_z	AC_x	GH_y	GH_z	GH_yy	EL_x	PS_y
       0.0              -31.02          33.01           44.8          57.22         -5.817         -9.514         -48.89          5.575         -134.6          137.2          158.7
   0.01757              -31.02          33.01           44.8          57.22         -5.816         -9.515         -48.88          5.578         -134.6          137.1          158.6
   0.03514              -31.02          33.01           44.8          57.22         -5.815         -9.517         -48.87           5.58         -134.6          137.1          158.6
   0.05271              -31.03          33.01           44.8          57.22         -5.814         -9.518         -48.87          5.583         -134.6          137.1          158.6
   0.07028              -31.03           33.0           44.8          57.22         -5.814         -9.519         -48.86          5.586         -134.6          137.1          158.6
   0.08784              -31.03           33.0           44.8          57.22         -5.813         -9.521         -48.85           5.59         -134.6          137.1          158.6
    0.1054              -31.04           33.0           44.8          57.22         -5.812         -9.522         -48.84          5.593         -134.6          137.1          158.6
     0.123              -31.04          32.99           44.8          57.22         -5.811         -9.524         -48.83          5.597         -134.7          137.1          158.6
    0.1406              -31.05          32.99          44.79          57.22         -5.809         -9.526         -48.82          5.601         -134.7          137.0          158.6
    0.1581              -31.05          32.98          44.79          57.22         -5.808         -9.527         -48.81          5.606         -134.7          137.0          158.5
    0.1757              -31.06          32.98          44.79          57.22         -5.807         -9.529          -48.8           5.61         -134.7          137.0          158.5
    0.1933              -31.06          32.98          44.79          57.22         -5.805         -9.532         -48.79          5.615         -134.7          137.0          158.5
    0.2108              -31.07          32.97          44.79          57.22         -5.804         -9.534         -48.78          5.621         -134.7          137.0          158.5
    0.2284              -31.07          32.96          44.78          57.22         -5.802         -9.537         -48.76          5.627         -134.7          136.9          158.5
     0.246              -31.08          32.96          44.78          57.22           -5.8         -9.539         -48.75          5.633         -134.7          136.9          158.4
    0.2635              -31.09          32.95          44.78          57.22         -5.798         -9.542         -48.73           5.64         -134.7          136.9          158.4
    0.2811               -31.1          32.94          44.78          57.22         -5.796         -9.546         -48.72          5.647         -134.8          136.9          158.4
    0.2987              -31.11          32.94          44.77          57.22         -5.794         -9.549          -48.7          5.656         -134.8          136.8          158.3
    0.3162              -31.12          32.93          44.77          57.22         -5.792         -9.553         -48.67          5.665         -134.8          136.8          158.3
    0.3338              -31.13          32.92          44.77          57.22         -5.789         -9.557         -48.65          5.674         -134.8          136.8          158.3
    0.3514              -31.14          32.91          44.76          57.22         -5.786         -9.562         -48.63          5.685         -134.8          136.7          158.2
    0.3689              -31.15           32.9          44.76          57.22         -5.782         -9.567          -48.6          5.697         -134.9          136.7          158.2
    0.3865              -31.17          32.89          44.75          57.22         -5.779         -9.573         -48.57           5.71         -134.9          136.6          158.1
    0.4041              -31.18          32.87          44.75          57.22         -5.775         -9.579         -48.53          5.724         -134.9          136.6          158.1
    0.4217               -31.2          32.86          44.74          57.22          -5.77         -9.586          -48.5           5.74         -134.9          136.5          158.0
    0.4392              -31.22          32.84          44.74          57.22         -5.765         -9.593         -48.45          5.758         -135.0          136.4          157.9
    0.4568              -31.24          32.82          44.73          57.22         -5.759         -9.602         -48.41          5.778         -135.0          136.4          157.8
    0.4744              -31.27           32.8          44.72          57.22         -5.753         -9.612         -48.35          5.801         -135.1          136.3          157.7
    0.4919               -31.3          32.77          44.71          57.22         -5.746         -9.623         -48.29          5.827         -135.1          136.2          157.6
    0.5095              -31.33          32.75           44.7          57.22         -5.738         -9.635         -48.23          5.855         -135.2          136.0          157.5
    0.5271              -31.37          32.71          44.69          57.22         -5.728          -9.65         -48.15          5.889         -135.2          135.9          157.4
    0.5446              -31.41          32.68          44.67          57.22         -5.718         -9.666         -48.06          5.927         -135.3          135.8          157.2
    0.5622              -31.46          32.64          44.66          57.22         -5.705         -9.685         -47.96           5.97         -135.4          135.6          157.1
    0.5798              -31.51          32.59          44.64          57.22         -5.691         -9.707         -47.84          6.021         -135.5          135.4          156.8
    0.5973              -31.58          32.53          44.61          57.22         -5.674         -9.733          -47.7          6.081         -135.6          135.2          156.6
    0.6149              -31.66          32.46          44.59          57.22         -5.654         -9.763         -47.53          6.151         -135.8          134.9          156.3
    0.6325              -31.75          32.38          44.56          57.22         -5.631         -9.799         -47.34          6.235         -135.9          134.6          156.0
      0.65              -31.86          32.29          44.52          57.22         -5.603         -9.843          -47.1          6.335         -136.1          134.2          155.6
    0.6676               -32.0          32.17          44.47          57.22         -5.568         -9.895         -46.82          6.456         -136.4          133.7          155.1
    0.6852              -32.16          32.03          44.42          57.22         -5.527         -9.959         -46.47          6.604         -136.7          133.1          154.5
    0.7028              -32.36          31.86          44.35          57.22         -5.475         -10.04         -46.04          6.786         -137.0          132.4          153.7
    0.7203              -32.62          31.64          44.26          57.22         -5.411         -10.14          -45.5          7.014         -137.5          131.5          152.8
    0.7379              -32.94          31.37          44.15          57.22          -5.33         -10.26         -44.83          7.301         -138.1          130.4          151.6
    0.7555              -33.34          31.02          44.02          57.22         -5.228         -10.42         -43.97          7.665         -138.8          128.9          150.2
     0.773              -33.86          30.58          43.84          57.22         -5.096         -10.62         -42.88          8.132         -139.7          127.1          148.3
    0.7906              -34.53          30.01          43.62          57.22         -4.927         -10.88         -41.47           8.73         -140.9          124.7          145.8
    0.8082              -35.38          29.28          43.33          57.22         -4.712         -11.21         -39.67          9.495         -142.5          121.7          142.7
    0.8257              -36.45          28.36          42.96          57.21         -4.441         -11.62         -37.42          10.46         -144.4          117.9          138.8
    0.8433              -37.75          27.24          42.52          57.21          -4.11         -12.13         -34.66          11.63         -146.7          113.3          134.0
